<?xml version="1.0" standalone="no"?>
<!DOCTYPE svg PUBLIC "-//W3C//DTD SVG 20010904//EN"
 "http://www.w3.org/TR/2001/REC-SVG-20010904/DTD/svg10.dtd">
<svg version="1.0" xmlns="http://www.w3.org/2000/svg"
 width="254.000000pt" height="300.000000pt" viewBox="0 0 254.000000 300.000000"
 preserveAspectRatio="xMidYMid meet">

<g transform="translate(0.000000,300.000000) scale(0.100000,-0.100000)"
fill="#000000" stroke="none">
<path d="M873 2916 c-195 -250 -241 -437 -153 -612 18 -34 76 -117 130 -183
54 -66 115 -146 136 -178 42 -63 93 -185 94 -223 0 -18 3 -21 11 -13 7 7 12
60 12 145 0 160 -12 218 -88 408 -30 75 -62 165 -70 201 -22 85 -30 321 -16
433 6 49 9 91 7 93 -2 3 -31 -30 -63 -71z"/>
<path d="M1608 2925 c4 -38 7 -142 6 -230 -1 -180 -15 -250 -80 -411 -89 -220
-110 -323 -99 -486 4 -54 10 -98 14 -98 3 0 12 24 18 53 21 88 80 190 192 330
174 218 201 272 201 401 0 79 -18 143 -68 241 -32 64 -110 177 -161 235 l-31
35 8 -70z"/>
<path d="M662 2210 c7 -207 41 -287 203 -475 47 -55 99 -127 116 -161 27 -55
53 -169 44 -197 -2 -7 -6 -36 -10 -66 -5 -48 -4 -53 9 -42 46 39 67 333 32
460 -35 129 -89 215 -243 390 -52 58 -108 133 -124 166 l-31 60 4 -135z"/>
<path d="M1848 2280 c-15 -30 -73 -107 -129 -170 -120 -137 -149 -176 -195
-273 -45 -97 -68 -217 -61 -327 7 -105 33 -224 53 -241 17 -14 17 -19 -1 93
-8 51 11 152 40 208 13 25 41 68 64 96 22 27 67 83 101 124 119 146 163 267
158 443 l-3 102 -27 -55z"/>
<path d="M1115 2035 c18 -149 16 -216 -10 -438 -14 -126 -24 -231 -21 -234 3
-4 33 50 66 118 62 129 100 252 100 325 0 79 -38 161 -115 249 l-26 30 6 -50z"/>
<path d="M1380 2027 c-87 -106 -107 -197 -71 -337 20 -80 136 -339 146 -328 3
3 -6 103 -20 221 -28 241 -30 300 -14 412 6 42 9 79 6 81 -2 2 -23 -20 -47
-49z"/>
<path d="M359 1901 c-29 -30 -31 -35 -27 -90 3 -43 12 -71 31 -100 19 -29 24
-42 15 -45 -7 -2 -42 -9 -77 -15 -139 -26 -251 -107 -284 -206 -9 -26 -15 -50
-13 -52 2 -2 25 6 52 18 68 29 189 59 239 59 67 0 138 -27 211 -80 38 -28 88
-58 112 -67 40 -15 48 -15 93 0 75 24 47 -1 -78 -70 -127 -69 -163 -106 -163
-166 0 -24 6 -52 14 -63 14 -18 20 -17 160 53 80 40 146 77 146 83 0 5 26 23
58 39 73 37 135 98 150 148 18 61 0 108 -64 169 -50 48 -53 55 -52 98 1 93
-46 124 -205 133 -56 3 -117 12 -134 19 -42 17 -59 52 -45 92 13 39 -9 61 -67
69 -35 5 -44 2 -72 -26z m107 -24 c13 -13 -12 -37 -38 -37 -16 0 -38 -5 -49
-10 -24 -14 -26 6 -3 39 14 19 23 22 52 18 19 -4 36 -8 38 -10z m4 -71 c0 -8
-11 -17 -25 -20 -14 -4 -32 -18 -41 -32 -13 -19 -19 -22 -25 -12 -13 19 -11
52 3 66 17 17 88 16 88 -2z m20 -57 c0 -4 -8 -13 -17 -18 -16 -9 -15 -10 5
-11 12 0 25 6 28 14 4 10 14 12 42 5 20 -4 49 -10 65 -14 52 -11 27 -22 -64
-28 -56 -4 -98 -3 -110 3 -26 15 -24 49 4 59 24 9 47 4 47 -10z m230 -16 c-1
-5 -12 -21 -25 -38 l-25 -30 0 27 c0 15 8 31 18 37 21 12 32 14 32 4z m80 -37
c18 -23 9 -61 -15 -61 -13 0 -19 6 -19 18 2 14 -1 15 -12 6 -8 -6 -14 -16 -14
-22 0 -19 33 -47 55 -47 35 0 48 24 43 75 -6 52 5 51 22 -1 11 -32 10 -39 -7
-63 -14 -18 -31 -27 -56 -29 -67 -6 -113 73 -70 120 19 22 56 24 73 4z m-172
-26 c26 -16 32 -26 32 -53 0 -23 -7 -40 -22 -53 -13 -10 -17 -12 -10 -4 32 36
-4 91 -69 105 -16 4 -27 11 -23 16 9 15 57 10 92 -11z m-102 -45 c37 -15 57
-44 44 -65 -7 -12 -13 -12 -37 0 -27 14 -27 14 -5 18 27 4 24 27 -4 27 -12 0
-20 -8 -22 -21 -3 -20 -8 -20 -111 -16 -126 5 -184 -8 -275 -63 -32 -19 -60
-35 -63 -35 -15 0 45 63 83 89 121 80 289 108 390 66z m-14 -102 c64 -19 112
-63 103 -95 -16 -54 -28 -55 -117 -10 -46 22 -105 46 -131 53 -64 16 -186 6
-261 -20 -33 -12 -61 -19 -64 -17 -2 3 15 18 38 35 103 74 287 98 432 54z
m313 -10 c24 -24 27 -34 22 -76 -5 -54 -29 -87 -57 -80 -19 5 -19 6 0 33 27
38 26 85 -2 104 -31 22 -65 20 -78 -4 -14 -26 3 -60 30 -60 24 0 37 20 19 31
-11 7 -10 9 4 9 29 0 33 -31 8 -52 -69 -55 -139 35 -76 97 35 36 93 34 130 -2z
m96 1 c7 -9 13 -42 13 -77 1 -82 -21 -112 -127 -173 -45 -26 -92 -54 -104 -62
-14 -9 -23 -10 -23 -4 0 6 44 43 99 81 127 90 145 127 115 234 -7 21 9 22 27
1z"/>
<path d="M2080 1923 c-37 -14 -48 -33 -39 -69 20 -72 -13 -93 -165 -105 -181
-15 -219 -38 -220 -133 -1 -52 -3 -56 -48 -95 -60 -53 -84 -111 -69 -168 15
-53 75 -115 151 -153 33 -17 60 -35 60 -40 0 -6 66 -43 146 -83 140 -70 146
-71 160 -53 8 11 14 39 14 63 0 59 -36 96 -156 162 -97 53 -172 103 -129 86
95 -36 136 -28 249 55 73 53 144 80 211 80 50 0 171 -30 239 -59 27 -12 51
-19 54 -16 11 11 -61 136 -96 165 -52 43 -126 76 -202 90 -36 7 -71 14 -78 16
-9 2 -3 20 18 57 41 74 42 137 1 178 -29 28 -63 36 -101 22z m84 -55 c23 -32
21 -51 -3 -38 -11 5 -33 10 -50 10 -17 0 -31 2 -31 4 0 2 -3 11 -6 19 -12 31
69 35 90 5z m-10 -61 c14 -10 17 -21 11 -45 -8 -38 -17 -40 -30 -9 -6 12 -24
27 -41 32 -17 6 -29 15 -27 23 6 16 64 16 87 -1z m-36 -69 c2 -9 -4 -23 -13
-32 -14 -14 -31 -16 -108 -10 -125 9 -131 17 -28 38 49 10 61 10 65 -1 3 -7
15 -13 28 -13 21 0 21 0 2 15 -16 12 -17 16 -5 24 18 12 55 -2 59 -21z m-267
-8 c12 -7 19 -21 19 -38 l0 -27 -25 30 c-35 43 -33 55 6 35z m-149 -65 c-7
-68 35 -99 80 -58 22 19 23 36 4 52 -11 9 -14 8 -12 -6 0 -12 -7 -19 -21 -21
-19 -3 -23 1 -23 25 0 51 44 70 82 36 43 -39 1 -123 -62 -123 -44 0 -67 15
-75 49 -5 25 16 91 29 91 2 0 1 -20 -2 -45z m302 16 c4 -5 -7 -12 -23 -16 -65
-14 -101 -69 -68 -105 10 -12 9 -12 -6 0 -45 34 -41 86 10 114 31 17 79 21 87
7z m256 -57 c79 -23 140 -57 188 -104 50 -50 55 -71 9 -36 -18 14 -60 38 -92
53 -56 26 -68 28 -192 28 -125 0 -132 1 -135 20 -4 25 -48 35 -48 11 0 -10 9
-16 23 -16 22 -1 22 -1 2 -16 -40 -30 -68 -3 -37 36 39 48 158 58 282 24z m96
-105 c56 -17 152 -75 142 -85 -3 -2 -31 5 -64 17 -33 12 -96 23 -144 26 -96 6
-169 -13 -269 -68 -59 -34 -76 -32 -91 7 -40 103 221 166 426 103z m-511 -4
c62 -62 -8 -151 -76 -97 -14 12 -20 25 -16 35 8 22 25 22 23 0 -2 -25 40 -29
52 -6 30 56 -47 88 -87 36 -24 -29 -21 -51 10 -95 15 -22 17 -28 5 -28 -8 0
-16 -5 -18 -12 -2 -6 -14 4 -26 24 -32 51 -30 112 4 143 37 34 96 34 129 0z
m-202 -12 c-13 -45 -7 -108 12 -137 10 -15 57 -54 106 -87 48 -33 90 -67 93
-75 5 -12 -1 -11 -27 4 -17 11 -61 37 -97 57 -82 46 -106 69 -121 113 -12 38
-6 117 12 138 19 23 30 16 22 -13z"/>
<path d="M1242 1673 c-65 -187 -145 -344 -215 -420 -51 -55 -91 -79 -152 -92
-52 -11 -225 -90 -225 -102 0 -4 21 -18 48 -31 70 -34 178 -32 249 5 153 80
284 318 309 563 4 35 10 61 14 59 4 -2 10 -34 14 -69 14 -142 81 -318 162
-425 51 -69 93 -103 170 -138 45 -21 67 -24 117 -21 58 3 157 40 157 57 0 12
-173 91 -225 102 -126 26 -218 137 -318 384 -25 61 -51 129 -58 153 -7 23 -15
42 -18 42 -3 0 -17 -30 -29 -67z"/>
<path d="M1193 1301 c-85 -172 -176 -269 -287 -307 -69 -23 -158 -15 -234 23
l-59 30 -46 -24 c-26 -13 -47 -27 -47 -32 0 -13 68 -57 135 -88 49 -22 74 -27
140 -28 71 0 88 4 147 33 89 44 163 126 222 246 39 79 94 242 84 251 -1 1 -26
-45 -55 -104z"/>
<path d="M1290 1398 c0 -9 12 -54 26 -100 60 -190 161 -331 282 -390 59 -29
76 -33 147 -33 61 1 92 6 130 23 62 29 145 81 145 93 0 5 -21 19 -47 32 l-47
24 -65 -30 c-205 -96 -380 3 -522 298 -27 55 -49 92 -49 83z"/>
<path d="M420 498 c-33 -17 -51 -35 -68 -68 -27 -54 -31 -51 119 -74 205 -31
578 -47 648 -27 l24 6 -34 29 c-93 79 -272 126 -574 151 -60 5 -76 2 -115 -17z"/>
<path d="M1950 509 c-228 -23 -424 -81 -493 -147 -25 -24 -26 -27 -10 -34 51
-20 452 -3 654 28 138 21 140 22 111 77 -41 77 -94 93 -262 76z"/>
<path d="M274 336 c-45 -20 -51 -36 -24 -58 33 -26 91 -21 105 10 17 38 30 27
26 -24 -2 -16 6 -25 30 -33 44 -15 217 -14 379 3 208 22 350 30 350 19 0 -5
-14 -28 -31 -51 -42 -58 -49 -105 -18 -138 69 -73 319 -73 388 0 31 33 24 83
-19 142 -16 23 -30 46 -30 49 0 9 160 -1 350 -21 162 -17 335 -18 379 -3 27 9
31 16 31 45 0 39 11 44 25 12 14 -31 72 -36 105 -10 21 17 22 22 11 35 -24 29
-77 40 -129 27 -158 -40 -192 -42 -837 -47 -659 -5 -773 0 -950 38 -104 22
-101 22 -141 5z m1055 -121 c56 -28 61 -107 9 -150 -38 -32 -78 -32 -117 1
-26 21 -31 33 -31 67 1 80 67 120 139 82z"/>
<path d="M840 194 c-52 -8 -154 -15 -227 -16 -143 -3 -151 -9 -65 -46 75 -32
127 -36 213 -13 77 20 231 91 194 89 -11 0 -63 -7 -115 -14z"/>
<path d="M1664 174 c101 -52 210 -78 280 -65 52 10 129 42 139 58 3 5 -50 9
-118 10 -68 1 -161 7 -207 13 -183 23 -172 25 -94 -16z"/>
<path d="M970 157 c-25 -18 -78 -43 -119 -58 l-74 -26 49 -17 c27 -9 84 -20
126 -23 l78 -6 -11 31 c-6 18 -9 54 -7 82 1 27 3 50 3 49 0 0 -20 -15 -45 -32z"/>
<path d="M1558 138 c2 -26 -1 -62 -7 -78 l-10 -30 43 0 c52 0 140 16 180 32
28 11 27 12 -46 37 -40 15 -94 40 -118 57 l-45 30 3 -48z"/>
</g>
</svg>
